<svg xmlns="http://www.w3.org/2000/svg" width="230" height="1045" viewBox="0 0 230 1045">
  <g id="Group_1323" data-name="Group 1323" transform="translate(9919 5614)">
    <circle id="Ellipse_9" data-name="Ellipse 9" cx="2.5" cy="2.5" r="2.5" transform="translate(-9694 -5549)" fill="#6a7294"/>
    <circle id="Ellipse_10" data-name="Ellipse 10" cx="2.5" cy="2.5" r="2.5" transform="translate(-9769 -5549)" fill="#6a7294"/>
    <circle id="Ellipse_11" data-name="Ellipse 11" cx="2.5" cy="2.5" r="2.5" transform="translate(-9844 -5549)" fill="#6a7294"/>
    <circle id="Ellipse_12" data-name="Ellipse 12" cx="2.5" cy="2.5" r="2.5" transform="translate(-9919 -5549)" fill="#6a7294"/>
    <circle id="Ellipse_9-2" data-name="Ellipse 9" cx="2.5" cy="2.5" r="2.5" transform="translate(-9694 -5159)" fill="#6a7294"/>
    <circle id="Ellipse_10-2" data-name="Ellipse 10" cx="2.5" cy="2.5" r="2.5" transform="translate(-9769 -5159)" fill="#6a7294"/>
    <circle id="Ellipse_11-2" data-name="Ellipse 11" cx="2.5" cy="2.5" r="2.5" transform="translate(-9844 -5159)" fill="#6a7294"/>
    <circle id="Ellipse_12-2" data-name="Ellipse 12" cx="2.5" cy="2.5" r="2.5" transform="translate(-9919 -5159)" fill="#6a7294"/>
    <circle id="Ellipse_9-3" data-name="Ellipse 9" cx="2.5" cy="2.5" r="2.5" transform="translate(-9694 -4769)" fill="#6a7294"/>
    <circle id="Ellipse_10-3" data-name="Ellipse 10" cx="2.5" cy="2.5" r="2.5" transform="translate(-9769 -4769)" fill="#6a7294"/>
    <circle id="Ellipse_11-3" data-name="Ellipse 11" cx="2.5" cy="2.5" r="2.5" transform="translate(-9844 -4769)" fill="#6a7294"/>
    <circle id="Ellipse_12-3" data-name="Ellipse 12" cx="2.5" cy="2.5" r="2.5" transform="translate(-9919 -4769)" fill="#6a7294"/>
    <circle id="Ellipse_9-4" data-name="Ellipse 9" cx="2.5" cy="2.5" r="2.5" transform="translate(-9694 -5419)" fill="#6a7294"/>
    <circle id="Ellipse_10-4" data-name="Ellipse 10" cx="2.5" cy="2.5" r="2.5" transform="translate(-9769 -5419)" fill="#6a7294"/>
    <circle id="Ellipse_11-4" data-name="Ellipse 11" cx="2.5" cy="2.5" r="2.5" transform="translate(-9844 -5419)" fill="#6a7294"/>
    <circle id="Ellipse_12-4" data-name="Ellipse 12" cx="2.5" cy="2.5" r="2.5" transform="translate(-9919 -5419)" fill="#6a7294"/>
    <circle id="Ellipse_9-5" data-name="Ellipse 9" cx="2.5" cy="2.5" r="2.5" transform="translate(-9694 -5029)" fill="#6a7294"/>
    <circle id="Ellipse_10-5" data-name="Ellipse 10" cx="2.5" cy="2.5" r="2.5" transform="translate(-9769 -5029)" fill="#6a7294"/>
    <circle id="Ellipse_11-5" data-name="Ellipse 11" cx="2.5" cy="2.5" r="2.5" transform="translate(-9844 -5029)" fill="#6a7294"/>
    <circle id="Ellipse_12-5" data-name="Ellipse 12" cx="2.5" cy="2.5" r="2.5" transform="translate(-9919 -5029)" fill="#6a7294"/>
    <circle id="Ellipse_9-6" data-name="Ellipse 9" cx="2.5" cy="2.5" r="2.5" transform="translate(-9694 -4639)" fill="#6a7294"/>
    <circle id="Ellipse_10-6" data-name="Ellipse 10" cx="2.5" cy="2.5" r="2.5" transform="translate(-9769 -4639)" fill="#6a7294"/>
    <circle id="Ellipse_11-6" data-name="Ellipse 11" cx="2.5" cy="2.5" r="2.5" transform="translate(-9844 -4639)" fill="#6a7294"/>
    <circle id="Ellipse_12-6" data-name="Ellipse 12" cx="2.5" cy="2.5" r="2.5" transform="translate(-9919 -4639)" fill="#6a7294"/>
    <circle id="Ellipse_9-7" data-name="Ellipse 9" cx="2.5" cy="2.5" r="2.5" transform="translate(-9694 -5289)" fill="#6a7294"/>
    <circle id="Ellipse_10-7" data-name="Ellipse 10" cx="2.5" cy="2.5" r="2.5" transform="translate(-9769 -5289)" fill="#6a7294"/>
    <circle id="Ellipse_11-7" data-name="Ellipse 11" cx="2.5" cy="2.5" r="2.5" transform="translate(-9844 -5289)" fill="#6a7294"/>
    <circle id="Ellipse_12-7" data-name="Ellipse 12" cx="2.5" cy="2.5" r="2.5" transform="translate(-9919 -5289)" fill="#6a7294"/>
    <circle id="Ellipse_9-8" data-name="Ellipse 9" cx="2.5" cy="2.5" r="2.5" transform="translate(-9694 -4899)" fill="#6a7294"/>
    <circle id="Ellipse_10-8" data-name="Ellipse 10" cx="2.5" cy="2.5" r="2.5" transform="translate(-9769 -4899)" fill="#6a7294"/>
    <circle id="Ellipse_11-8" data-name="Ellipse 11" cx="2.5" cy="2.5" r="2.5" transform="translate(-9844 -4899)" fill="#6a7294"/>
    <circle id="Ellipse_12-8" data-name="Ellipse 12" cx="2.5" cy="2.5" r="2.5" transform="translate(-9919 -4899)" fill="#6a7294"/>
    <circle id="Ellipse_9-9" data-name="Ellipse 9" cx="2.5" cy="2.5" r="2.5" transform="translate(-9694 -5614)" fill="#6a7294"/>
    <circle id="Ellipse_10-9" data-name="Ellipse 10" cx="2.5" cy="2.5" r="2.5" transform="translate(-9769 -5614)" fill="#6a7294"/>
    <circle id="Ellipse_11-9" data-name="Ellipse 11" cx="2.5" cy="2.5" r="2.5" transform="translate(-9844 -5614)" fill="#6a7294"/>
    <circle id="Ellipse_12-9" data-name="Ellipse 12" cx="2.5" cy="2.5" r="2.5" transform="translate(-9919 -5614)" fill="#6a7294"/>
    <circle id="Ellipse_9-10" data-name="Ellipse 9" cx="2.5" cy="2.5" r="2.5" transform="translate(-9694 -5224)" fill="#6a7294"/>
    <circle id="Ellipse_10-10" data-name="Ellipse 10" cx="2.5" cy="2.5" r="2.5" transform="translate(-9769 -5224)" fill="#6a7294"/>
    <circle id="Ellipse_11-10" data-name="Ellipse 11" cx="2.5" cy="2.5" r="2.5" transform="translate(-9844 -5224)" fill="#6a7294"/>
    <circle id="Ellipse_12-10" data-name="Ellipse 12" cx="2.5" cy="2.5" r="2.5" transform="translate(-9919 -5224)" fill="#6a7294"/>
    <circle id="Ellipse_9-11" data-name="Ellipse 9" cx="2.5" cy="2.5" r="2.5" transform="translate(-9694 -4834)" fill="#6a7294"/>
    <circle id="Ellipse_10-11" data-name="Ellipse 10" cx="2.5" cy="2.5" r="2.5" transform="translate(-9769 -4834)" fill="#6a7294"/>
    <circle id="Ellipse_11-11" data-name="Ellipse 11" cx="2.5" cy="2.5" r="2.5" transform="translate(-9844 -4834)" fill="#6a7294"/>
    <circle id="Ellipse_12-11" data-name="Ellipse 12" cx="2.5" cy="2.5" r="2.5" transform="translate(-9919 -4834)" fill="#6a7294"/>
    <circle id="Ellipse_9-12" data-name="Ellipse 9" cx="2.5" cy="2.5" r="2.5" transform="translate(-9694 -5484)" fill="#6a7294"/>
    <circle id="Ellipse_10-12" data-name="Ellipse 10" cx="2.5" cy="2.5" r="2.5" transform="translate(-9769 -5484)" fill="#6a7294"/>
    <circle id="Ellipse_11-12" data-name="Ellipse 11" cx="2.5" cy="2.5" r="2.5" transform="translate(-9844 -5484)" fill="#6a7294"/>
    <circle id="Ellipse_12-12" data-name="Ellipse 12" cx="2.5" cy="2.5" r="2.5" transform="translate(-9919 -5484)" fill="#6a7294"/>
    <circle id="Ellipse_9-13" data-name="Ellipse 9" cx="2.5" cy="2.5" r="2.5" transform="translate(-9694 -5094)" fill="#6a7294"/>
    <circle id="Ellipse_10-13" data-name="Ellipse 10" cx="2.5" cy="2.5" r="2.5" transform="translate(-9769 -5094)" fill="#6a7294"/>
    <circle id="Ellipse_11-13" data-name="Ellipse 11" cx="2.5" cy="2.5" r="2.5" transform="translate(-9844 -5094)" fill="#6a7294"/>
    <circle id="Ellipse_12-13" data-name="Ellipse 12" cx="2.5" cy="2.5" r="2.5" transform="translate(-9919 -5094)" fill="#6a7294"/>
    <circle id="Ellipse_9-14" data-name="Ellipse 9" cx="2.5" cy="2.5" r="2.5" transform="translate(-9694 -4704)" fill="#6a7294"/>
    <circle id="Ellipse_10-14" data-name="Ellipse 10" cx="2.5" cy="2.5" r="2.5" transform="translate(-9769 -4704)" fill="#6a7294"/>
    <circle id="Ellipse_11-14" data-name="Ellipse 11" cx="2.5" cy="2.5" r="2.5" transform="translate(-9844 -4704)" fill="#6a7294"/>
    <circle id="Ellipse_12-14" data-name="Ellipse 12" cx="2.5" cy="2.5" r="2.5" transform="translate(-9919 -4704)" fill="#6a7294"/>
    <circle id="Ellipse_9-15" data-name="Ellipse 9" cx="2.5" cy="2.5" r="2.5" transform="translate(-9694 -5354)" fill="#6a7294"/>
    <circle id="Ellipse_10-15" data-name="Ellipse 10" cx="2.5" cy="2.5" r="2.5" transform="translate(-9769 -5354)" fill="#6a7294"/>
    <circle id="Ellipse_11-15" data-name="Ellipse 11" cx="2.5" cy="2.5" r="2.5" transform="translate(-9844 -5354)" fill="#6a7294"/>
    <circle id="Ellipse_12-15" data-name="Ellipse 12" cx="2.5" cy="2.5" r="2.5" transform="translate(-9919 -5354)" fill="#6a7294"/>
    <circle id="Ellipse_9-16" data-name="Ellipse 9" cx="2.5" cy="2.5" r="2.5" transform="translate(-9694 -4964)" fill="#6a7294"/>
    <circle id="Ellipse_10-16" data-name="Ellipse 10" cx="2.5" cy="2.5" r="2.5" transform="translate(-9769 -4964)" fill="#6a7294"/>
    <circle id="Ellipse_11-16" data-name="Ellipse 11" cx="2.5" cy="2.5" r="2.5" transform="translate(-9844 -4964)" fill="#6a7294"/>
    <circle id="Ellipse_12-16" data-name="Ellipse 12" cx="2.5" cy="2.5" r="2.5" transform="translate(-9919 -4964)" fill="#6a7294"/>
    <circle id="Ellipse_9-17" data-name="Ellipse 9" cx="2.5" cy="2.5" r="2.5" transform="translate(-9694 -4574)" fill="#6a7294"/>
    <circle id="Ellipse_10-17" data-name="Ellipse 10" cx="2.5" cy="2.5" r="2.5" transform="translate(-9769 -4574)" fill="#6a7294"/>
    <circle id="Ellipse_11-17" data-name="Ellipse 11" cx="2.5" cy="2.5" r="2.5" transform="translate(-9844 -4574)" fill="#6a7294"/>
    <circle id="Ellipse_12-17" data-name="Ellipse 12" cx="2.5" cy="2.5" r="2.5" transform="translate(-9919 -4574)" fill="#6a7294"/>
  </g>
</svg>
