<svg xmlns="http://www.w3.org/2000/svg" width="1430" height="1045" viewBox="0 0 1430 1045">
  <g id="Group_1322" data-name="Group 1322" transform="translate(9274 5614)">
    <g id="Group_1318" data-name="Group 1318" transform="translate(-2422 -7)">
      <circle id="Ellipse_9" data-name="Ellipse 9" cx="2.5" cy="2.5" r="2.5" transform="translate(-6552 -5542)" fill="#6a7294"/>
      <circle id="Ellipse_10" data-name="Ellipse 10" cx="2.5" cy="2.5" r="2.5" transform="translate(-6627 -5542)" fill="#6a7294"/>
      <circle id="Ellipse_11" data-name="Ellipse 11" cx="2.5" cy="2.5" r="2.5" transform="translate(-6702 -5542)" fill="#6a7294"/>
      <circle id="Ellipse_12" data-name="Ellipse 12" cx="2.5" cy="2.5" r="2.5" transform="translate(-6777 -5542)" fill="#6a7294"/>
      <circle id="Ellipse_13" data-name="Ellipse 13" cx="2.5" cy="2.5" r="2.5" transform="translate(-6852 -5542)" fill="#6a7294"/>
      <circle id="Ellipse_9-2" data-name="Ellipse 9" cx="2.5" cy="2.5" r="2.5" transform="translate(-6552 -5152)" fill="#6a7294"/>
      <circle id="Ellipse_10-2" data-name="Ellipse 10" cx="2.5" cy="2.5" r="2.5" transform="translate(-6627 -5152)" fill="#6a7294"/>
      <circle id="Ellipse_11-2" data-name="Ellipse 11" cx="2.5" cy="2.5" r="2.5" transform="translate(-6702 -5152)" fill="#6a7294"/>
      <circle id="Ellipse_12-2" data-name="Ellipse 12" cx="2.5" cy="2.5" r="2.5" transform="translate(-6777 -5152)" fill="#6a7294"/>
      <circle id="Ellipse_13-2" data-name="Ellipse 13" cx="2.5" cy="2.5" r="2.5" transform="translate(-6852 -5152)" fill="#6a7294"/>
      <circle id="Ellipse_9-3" data-name="Ellipse 9" cx="2.5" cy="2.5" r="2.5" transform="translate(-6552 -4762)" fill="#6a7294"/>
      <circle id="Ellipse_10-3" data-name="Ellipse 10" cx="2.5" cy="2.5" r="2.5" transform="translate(-6627 -4762)" fill="#6a7294"/>
      <circle id="Ellipse_11-3" data-name="Ellipse 11" cx="2.5" cy="2.5" r="2.5" transform="translate(-6702 -4762)" fill="#6a7294"/>
      <circle id="Ellipse_12-3" data-name="Ellipse 12" cx="2.5" cy="2.5" r="2.5" transform="translate(-6777 -4762)" fill="#6a7294"/>
      <circle id="Ellipse_13-3" data-name="Ellipse 13" cx="2.5" cy="2.5" r="2.5" transform="translate(-6852 -4762)" fill="#6a7294"/>
      <circle id="Ellipse_9-4" data-name="Ellipse 9" cx="2.5" cy="2.5" r="2.5" transform="translate(-6552 -5412)" fill="#6a7294"/>
      <circle id="Ellipse_10-4" data-name="Ellipse 10" cx="2.5" cy="2.5" r="2.5" transform="translate(-6627 -5412)" fill="#6a7294"/>
      <circle id="Ellipse_11-4" data-name="Ellipse 11" cx="2.5" cy="2.5" r="2.5" transform="translate(-6702 -5412)" fill="#6a7294"/>
      <circle id="Ellipse_12-4" data-name="Ellipse 12" cx="2.5" cy="2.5" r="2.5" transform="translate(-6777 -5412)" fill="#6a7294"/>
      <circle id="Ellipse_13-4" data-name="Ellipse 13" cx="2.5" cy="2.5" r="2.5" transform="translate(-6852 -5412)" fill="#6a7294"/>
      <circle id="Ellipse_9-5" data-name="Ellipse 9" cx="2.5" cy="2.5" r="2.5" transform="translate(-6552 -5022)" fill="#6a7294"/>
      <circle id="Ellipse_10-5" data-name="Ellipse 10" cx="2.5" cy="2.5" r="2.5" transform="translate(-6627 -5022)" fill="#6a7294"/>
      <circle id="Ellipse_11-5" data-name="Ellipse 11" cx="2.5" cy="2.5" r="2.5" transform="translate(-6702 -5022)" fill="#6a7294"/>
      <circle id="Ellipse_12-5" data-name="Ellipse 12" cx="2.5" cy="2.5" r="2.5" transform="translate(-6777 -5022)" fill="#6a7294"/>
      <circle id="Ellipse_13-5" data-name="Ellipse 13" cx="2.5" cy="2.5" r="2.5" transform="translate(-6852 -5022)" fill="#6a7294"/>
      <circle id="Ellipse_9-6" data-name="Ellipse 9" cx="2.5" cy="2.5" r="2.5" transform="translate(-6552 -4632)" fill="#6a7294"/>
      <circle id="Ellipse_10-6" data-name="Ellipse 10" cx="2.5" cy="2.5" r="2.5" transform="translate(-6627 -4632)" fill="#6a7294"/>
      <circle id="Ellipse_11-6" data-name="Ellipse 11" cx="2.5" cy="2.5" r="2.5" transform="translate(-6702 -4632)" fill="#6a7294"/>
      <circle id="Ellipse_12-6" data-name="Ellipse 12" cx="2.5" cy="2.5" r="2.5" transform="translate(-6777 -4632)" fill="#6a7294"/>
      <circle id="Ellipse_13-6" data-name="Ellipse 13" cx="2.5" cy="2.5" r="2.5" transform="translate(-6852 -4632)" fill="#6a7294"/>
      <circle id="Ellipse_9-7" data-name="Ellipse 9" cx="2.5" cy="2.5" r="2.5" transform="translate(-6552 -5282)" fill="#6a7294"/>
      <circle id="Ellipse_10-7" data-name="Ellipse 10" cx="2.5" cy="2.5" r="2.5" transform="translate(-6627 -5282)" fill="#6a7294"/>
      <circle id="Ellipse_11-7" data-name="Ellipse 11" cx="2.5" cy="2.5" r="2.5" transform="translate(-6702 -5282)" fill="#6a7294"/>
      <circle id="Ellipse_12-7" data-name="Ellipse 12" cx="2.5" cy="2.5" r="2.5" transform="translate(-6777 -5282)" fill="#6a7294"/>
      <circle id="Ellipse_13-7" data-name="Ellipse 13" cx="2.5" cy="2.5" r="2.5" transform="translate(-6852 -5282)" fill="#6a7294"/>
      <circle id="Ellipse_9-8" data-name="Ellipse 9" cx="2.5" cy="2.5" r="2.5" transform="translate(-6552 -4892)" fill="#6a7294"/>
      <circle id="Ellipse_10-8" data-name="Ellipse 10" cx="2.5" cy="2.5" r="2.5" transform="translate(-6627 -4892)" fill="#6a7294"/>
      <circle id="Ellipse_11-8" data-name="Ellipse 11" cx="2.5" cy="2.5" r="2.5" transform="translate(-6702 -4892)" fill="#6a7294"/>
      <circle id="Ellipse_12-8" data-name="Ellipse 12" cx="2.5" cy="2.5" r="2.5" transform="translate(-6777 -4892)" fill="#6a7294"/>
      <circle id="Ellipse_13-8" data-name="Ellipse 13" cx="2.5" cy="2.5" r="2.5" transform="translate(-6852 -4892)" fill="#6a7294"/>
      <circle id="Ellipse_9-9" data-name="Ellipse 9" cx="2.5" cy="2.5" r="2.5" transform="translate(-6552 -5607)" fill="#6a7294"/>
      <circle id="Ellipse_10-9" data-name="Ellipse 10" cx="2.5" cy="2.5" r="2.5" transform="translate(-6627 -5607)" fill="#6a7294"/>
      <circle id="Ellipse_11-9" data-name="Ellipse 11" cx="2.5" cy="2.5" r="2.5" transform="translate(-6702 -5607)" fill="#6a7294"/>
      <circle id="Ellipse_12-9" data-name="Ellipse 12" cx="2.5" cy="2.5" r="2.5" transform="translate(-6777 -5607)" fill="#6a7294"/>
      <circle id="Ellipse_13-9" data-name="Ellipse 13" cx="2.5" cy="2.5" r="2.5" transform="translate(-6852 -5607)" fill="#6a7294"/>
      <circle id="Ellipse_9-10" data-name="Ellipse 9" cx="2.5" cy="2.5" r="2.5" transform="translate(-6552 -5217)" fill="#6a7294"/>
      <circle id="Ellipse_10-10" data-name="Ellipse 10" cx="2.5" cy="2.5" r="2.5" transform="translate(-6627 -5217)" fill="#6a7294"/>
      <circle id="Ellipse_11-10" data-name="Ellipse 11" cx="2.5" cy="2.5" r="2.5" transform="translate(-6702 -5217)" fill="#6a7294"/>
      <circle id="Ellipse_12-10" data-name="Ellipse 12" cx="2.5" cy="2.5" r="2.5" transform="translate(-6777 -5217)" fill="#6a7294"/>
      <circle id="Ellipse_13-10" data-name="Ellipse 13" cx="2.5" cy="2.5" r="2.5" transform="translate(-6852 -5217)" fill="#6a7294"/>
      <circle id="Ellipse_9-11" data-name="Ellipse 9" cx="2.5" cy="2.5" r="2.5" transform="translate(-6552 -4827)" fill="#6a7294"/>
      <circle id="Ellipse_10-11" data-name="Ellipse 10" cx="2.5" cy="2.5" r="2.5" transform="translate(-6627 -4827)" fill="#6a7294"/>
      <circle id="Ellipse_11-11" data-name="Ellipse 11" cx="2.5" cy="2.5" r="2.5" transform="translate(-6702 -4827)" fill="#6a7294"/>
      <circle id="Ellipse_12-11" data-name="Ellipse 12" cx="2.5" cy="2.5" r="2.5" transform="translate(-6777 -4827)" fill="#6a7294"/>
      <circle id="Ellipse_13-11" data-name="Ellipse 13" cx="2.5" cy="2.5" r="2.5" transform="translate(-6852 -4827)" fill="#6a7294"/>
      <circle id="Ellipse_9-12" data-name="Ellipse 9" cx="2.5" cy="2.5" r="2.5" transform="translate(-6552 -5477)" fill="#6a7294"/>
      <circle id="Ellipse_10-12" data-name="Ellipse 10" cx="2.5" cy="2.5" r="2.5" transform="translate(-6627 -5477)" fill="#6a7294"/>
      <circle id="Ellipse_11-12" data-name="Ellipse 11" cx="2.5" cy="2.5" r="2.5" transform="translate(-6702 -5477)" fill="#6a7294"/>
      <circle id="Ellipse_12-12" data-name="Ellipse 12" cx="2.5" cy="2.5" r="2.5" transform="translate(-6777 -5477)" fill="#6a7294"/>
      <circle id="Ellipse_13-12" data-name="Ellipse 13" cx="2.5" cy="2.5" r="2.5" transform="translate(-6852 -5477)" fill="#6a7294"/>
      <circle id="Ellipse_9-13" data-name="Ellipse 9" cx="2.5" cy="2.5" r="2.5" transform="translate(-6552 -5087)" fill="#6a7294"/>
      <circle id="Ellipse_10-13" data-name="Ellipse 10" cx="2.5" cy="2.5" r="2.5" transform="translate(-6627 -5087)" fill="#6a7294"/>
      <circle id="Ellipse_11-13" data-name="Ellipse 11" cx="2.5" cy="2.5" r="2.5" transform="translate(-6702 -5087)" fill="#6a7294"/>
      <circle id="Ellipse_12-13" data-name="Ellipse 12" cx="2.5" cy="2.5" r="2.5" transform="translate(-6777 -5087)" fill="#6a7294"/>
      <circle id="Ellipse_13-13" data-name="Ellipse 13" cx="2.5" cy="2.5" r="2.5" transform="translate(-6852 -5087)" fill="#6a7294"/>
      <circle id="Ellipse_9-14" data-name="Ellipse 9" cx="2.5" cy="2.5" r="2.5" transform="translate(-6552 -4697)" fill="#6a7294"/>
      <circle id="Ellipse_10-14" data-name="Ellipse 10" cx="2.5" cy="2.5" r="2.5" transform="translate(-6627 -4697)" fill="#6a7294"/>
      <circle id="Ellipse_11-14" data-name="Ellipse 11" cx="2.5" cy="2.5" r="2.5" transform="translate(-6702 -4697)" fill="#6a7294"/>
      <circle id="Ellipse_12-14" data-name="Ellipse 12" cx="2.5" cy="2.5" r="2.5" transform="translate(-6777 -4697)" fill="#6a7294"/>
      <circle id="Ellipse_13-14" data-name="Ellipse 13" cx="2.5" cy="2.5" r="2.5" transform="translate(-6852 -4697)" fill="#6a7294"/>
      <circle id="Ellipse_9-15" data-name="Ellipse 9" cx="2.5" cy="2.5" r="2.5" transform="translate(-6552 -5347)" fill="#6a7294"/>
      <circle id="Ellipse_10-15" data-name="Ellipse 10" cx="2.5" cy="2.5" r="2.5" transform="translate(-6627 -5347)" fill="#6a7294"/>
      <circle id="Ellipse_11-15" data-name="Ellipse 11" cx="2.5" cy="2.5" r="2.5" transform="translate(-6702 -5347)" fill="#6a7294"/>
      <circle id="Ellipse_12-15" data-name="Ellipse 12" cx="2.5" cy="2.5" r="2.5" transform="translate(-6777 -5347)" fill="#6a7294"/>
      <circle id="Ellipse_13-15" data-name="Ellipse 13" cx="2.5" cy="2.5" r="2.5" transform="translate(-6852 -5347)" fill="#6a7294"/>
      <circle id="Ellipse_9-16" data-name="Ellipse 9" cx="2.5" cy="2.5" r="2.5" transform="translate(-6552 -4957)" fill="#6a7294"/>
      <circle id="Ellipse_10-16" data-name="Ellipse 10" cx="2.5" cy="2.5" r="2.5" transform="translate(-6627 -4957)" fill="#6a7294"/>
      <circle id="Ellipse_11-16" data-name="Ellipse 11" cx="2.5" cy="2.5" r="2.5" transform="translate(-6702 -4957)" fill="#6a7294"/>
      <circle id="Ellipse_12-16" data-name="Ellipse 12" cx="2.5" cy="2.5" r="2.5" transform="translate(-6777 -4957)" fill="#6a7294"/>
      <circle id="Ellipse_13-16" data-name="Ellipse 13" cx="2.5" cy="2.5" r="2.5" transform="translate(-6852 -4957)" fill="#6a7294"/>
      <circle id="Ellipse_9-17" data-name="Ellipse 9" cx="2.5" cy="2.5" r="2.5" transform="translate(-6552 -4567)" fill="#6a7294"/>
      <circle id="Ellipse_10-17" data-name="Ellipse 10" cx="2.5" cy="2.5" r="2.5" transform="translate(-6627 -4567)" fill="#6a7294"/>
      <circle id="Ellipse_11-17" data-name="Ellipse 11" cx="2.5" cy="2.5" r="2.5" transform="translate(-6702 -4567)" fill="#6a7294"/>
      <circle id="Ellipse_12-17" data-name="Ellipse 12" cx="2.5" cy="2.5" r="2.5" transform="translate(-6777 -4567)" fill="#6a7294"/>
      <circle id="Ellipse_13-17" data-name="Ellipse 13" cx="2.5" cy="2.5" r="2.5" transform="translate(-6852 -4567)" fill="#6a7294"/>
    </g>
    <g id="Group_1321" data-name="Group 1321" transform="translate(-1672 -7)">
      <circle id="Ellipse_9-18" data-name="Ellipse 9" cx="2.5" cy="2.5" r="2.5" transform="translate(-6552 -5542)" fill="#6a7294"/>
      <circle id="Ellipse_10-18" data-name="Ellipse 10" cx="2.5" cy="2.5" r="2.5" transform="translate(-6627 -5542)" fill="#6a7294"/>
      <circle id="Ellipse_11-18" data-name="Ellipse 11" cx="2.5" cy="2.5" r="2.5" transform="translate(-6702 -5542)" fill="#6a7294"/>
      <circle id="Ellipse_12-18" data-name="Ellipse 12" cx="2.5" cy="2.5" r="2.5" transform="translate(-6777 -5542)" fill="#6a7294"/>
      <circle id="Ellipse_13-18" data-name="Ellipse 13" cx="2.5" cy="2.5" r="2.5" transform="translate(-6852 -5542)" fill="#6a7294"/>
      <circle id="Ellipse_9-19" data-name="Ellipse 9" cx="2.5" cy="2.5" r="2.5" transform="translate(-6552 -5152)" fill="#6a7294"/>
      <circle id="Ellipse_10-19" data-name="Ellipse 10" cx="2.5" cy="2.5" r="2.5" transform="translate(-6627 -5152)" fill="#6a7294"/>
      <circle id="Ellipse_11-19" data-name="Ellipse 11" cx="2.5" cy="2.5" r="2.5" transform="translate(-6702 -5152)" fill="#6a7294"/>
      <circle id="Ellipse_12-19" data-name="Ellipse 12" cx="2.5" cy="2.5" r="2.5" transform="translate(-6777 -5152)" fill="#6a7294"/>
      <circle id="Ellipse_13-19" data-name="Ellipse 13" cx="2.5" cy="2.5" r="2.5" transform="translate(-6852 -5152)" fill="#6a7294"/>
      <circle id="Ellipse_9-20" data-name="Ellipse 9" cx="2.5" cy="2.5" r="2.5" transform="translate(-6552 -4762)" fill="#6a7294"/>
      <circle id="Ellipse_10-20" data-name="Ellipse 10" cx="2.5" cy="2.5" r="2.5" transform="translate(-6627 -4762)" fill="#6a7294"/>
      <circle id="Ellipse_11-20" data-name="Ellipse 11" cx="2.5" cy="2.5" r="2.5" transform="translate(-6702 -4762)" fill="#6a7294"/>
      <circle id="Ellipse_12-20" data-name="Ellipse 12" cx="2.5" cy="2.5" r="2.5" transform="translate(-6777 -4762)" fill="#6a7294"/>
      <circle id="Ellipse_13-20" data-name="Ellipse 13" cx="2.5" cy="2.5" r="2.5" transform="translate(-6852 -4762)" fill="#6a7294"/>
      <circle id="Ellipse_9-21" data-name="Ellipse 9" cx="2.5" cy="2.5" r="2.5" transform="translate(-6552 -5412)" fill="#6a7294"/>
      <circle id="Ellipse_10-21" data-name="Ellipse 10" cx="2.5" cy="2.5" r="2.5" transform="translate(-6627 -5412)" fill="#6a7294"/>
      <circle id="Ellipse_11-21" data-name="Ellipse 11" cx="2.5" cy="2.5" r="2.5" transform="translate(-6702 -5412)" fill="#6a7294"/>
      <circle id="Ellipse_12-21" data-name="Ellipse 12" cx="2.5" cy="2.5" r="2.5" transform="translate(-6777 -5412)" fill="#6a7294"/>
      <circle id="Ellipse_13-21" data-name="Ellipse 13" cx="2.5" cy="2.5" r="2.5" transform="translate(-6852 -5412)" fill="#6a7294"/>
      <circle id="Ellipse_9-22" data-name="Ellipse 9" cx="2.5" cy="2.5" r="2.5" transform="translate(-6552 -5022)" fill="#6a7294"/>
      <circle id="Ellipse_10-22" data-name="Ellipse 10" cx="2.5" cy="2.5" r="2.5" transform="translate(-6627 -5022)" fill="#6a7294"/>
      <circle id="Ellipse_11-22" data-name="Ellipse 11" cx="2.5" cy="2.5" r="2.5" transform="translate(-6702 -5022)" fill="#6a7294"/>
      <circle id="Ellipse_12-22" data-name="Ellipse 12" cx="2.5" cy="2.5" r="2.5" transform="translate(-6777 -5022)" fill="#6a7294"/>
      <circle id="Ellipse_13-22" data-name="Ellipse 13" cx="2.5" cy="2.5" r="2.5" transform="translate(-6852 -5022)" fill="#6a7294"/>
      <circle id="Ellipse_9-23" data-name="Ellipse 9" cx="2.5" cy="2.5" r="2.5" transform="translate(-6552 -4632)" fill="#6a7294"/>
      <circle id="Ellipse_10-23" data-name="Ellipse 10" cx="2.5" cy="2.5" r="2.5" transform="translate(-6627 -4632)" fill="#6a7294"/>
      <circle id="Ellipse_11-23" data-name="Ellipse 11" cx="2.5" cy="2.5" r="2.5" transform="translate(-6702 -4632)" fill="#6a7294"/>
      <circle id="Ellipse_12-23" data-name="Ellipse 12" cx="2.5" cy="2.5" r="2.5" transform="translate(-6777 -4632)" fill="#6a7294"/>
      <circle id="Ellipse_13-23" data-name="Ellipse 13" cx="2.5" cy="2.5" r="2.5" transform="translate(-6852 -4632)" fill="#6a7294"/>
      <circle id="Ellipse_9-24" data-name="Ellipse 9" cx="2.5" cy="2.5" r="2.5" transform="translate(-6552 -5282)" fill="#6a7294"/>
      <circle id="Ellipse_10-24" data-name="Ellipse 10" cx="2.5" cy="2.5" r="2.5" transform="translate(-6627 -5282)" fill="#6a7294"/>
      <circle id="Ellipse_11-24" data-name="Ellipse 11" cx="2.5" cy="2.5" r="2.5" transform="translate(-6702 -5282)" fill="#6a7294"/>
      <circle id="Ellipse_12-24" data-name="Ellipse 12" cx="2.5" cy="2.5" r="2.5" transform="translate(-6777 -5282)" fill="#6a7294"/>
      <circle id="Ellipse_13-24" data-name="Ellipse 13" cx="2.5" cy="2.5" r="2.5" transform="translate(-6852 -5282)" fill="#6a7294"/>
      <circle id="Ellipse_9-25" data-name="Ellipse 9" cx="2.5" cy="2.5" r="2.5" transform="translate(-6552 -4892)" fill="#6a7294"/>
      <circle id="Ellipse_10-25" data-name="Ellipse 10" cx="2.5" cy="2.5" r="2.5" transform="translate(-6627 -4892)" fill="#6a7294"/>
      <circle id="Ellipse_11-25" data-name="Ellipse 11" cx="2.5" cy="2.5" r="2.5" transform="translate(-6702 -4892)" fill="#6a7294"/>
      <circle id="Ellipse_12-25" data-name="Ellipse 12" cx="2.5" cy="2.5" r="2.5" transform="translate(-6777 -4892)" fill="#6a7294"/>
      <circle id="Ellipse_13-25" data-name="Ellipse 13" cx="2.5" cy="2.5" r="2.5" transform="translate(-6852 -4892)" fill="#6a7294"/>
      <circle id="Ellipse_9-26" data-name="Ellipse 9" cx="2.5" cy="2.5" r="2.5" transform="translate(-6552 -5607)" fill="#6a7294"/>
      <circle id="Ellipse_10-26" data-name="Ellipse 10" cx="2.5" cy="2.5" r="2.5" transform="translate(-6627 -5607)" fill="#6a7294"/>
      <circle id="Ellipse_11-26" data-name="Ellipse 11" cx="2.5" cy="2.5" r="2.5" transform="translate(-6702 -5607)" fill="#6a7294"/>
      <circle id="Ellipse_12-26" data-name="Ellipse 12" cx="2.5" cy="2.5" r="2.5" transform="translate(-6777 -5607)" fill="#6a7294"/>
      <circle id="Ellipse_13-26" data-name="Ellipse 13" cx="2.5" cy="2.5" r="2.5" transform="translate(-6852 -5607)" fill="#6a7294"/>
      <circle id="Ellipse_9-27" data-name="Ellipse 9" cx="2.5" cy="2.5" r="2.5" transform="translate(-6552 -5217)" fill="#6a7294"/>
      <circle id="Ellipse_10-27" data-name="Ellipse 10" cx="2.5" cy="2.5" r="2.5" transform="translate(-6627 -5217)" fill="#6a7294"/>
      <circle id="Ellipse_11-27" data-name="Ellipse 11" cx="2.5" cy="2.5" r="2.5" transform="translate(-6702 -5217)" fill="#6a7294"/>
      <circle id="Ellipse_12-27" data-name="Ellipse 12" cx="2.5" cy="2.5" r="2.5" transform="translate(-6777 -5217)" fill="#6a7294"/>
      <circle id="Ellipse_13-27" data-name="Ellipse 13" cx="2.5" cy="2.5" r="2.5" transform="translate(-6852 -5217)" fill="#6a7294"/>
      <circle id="Ellipse_9-28" data-name="Ellipse 9" cx="2.5" cy="2.5" r="2.5" transform="translate(-6552 -4827)" fill="#6a7294"/>
      <circle id="Ellipse_10-28" data-name="Ellipse 10" cx="2.5" cy="2.5" r="2.5" transform="translate(-6627 -4827)" fill="#6a7294"/>
      <circle id="Ellipse_11-28" data-name="Ellipse 11" cx="2.5" cy="2.5" r="2.5" transform="translate(-6702 -4827)" fill="#6a7294"/>
      <circle id="Ellipse_12-28" data-name="Ellipse 12" cx="2.5" cy="2.5" r="2.5" transform="translate(-6777 -4827)" fill="#6a7294"/>
      <circle id="Ellipse_13-28" data-name="Ellipse 13" cx="2.5" cy="2.5" r="2.5" transform="translate(-6852 -4827)" fill="#6a7294"/>
      <circle id="Ellipse_9-29" data-name="Ellipse 9" cx="2.5" cy="2.5" r="2.5" transform="translate(-6552 -5477)" fill="#6a7294"/>
      <circle id="Ellipse_10-29" data-name="Ellipse 10" cx="2.5" cy="2.5" r="2.5" transform="translate(-6627 -5477)" fill="#6a7294"/>
      <circle id="Ellipse_11-29" data-name="Ellipse 11" cx="2.5" cy="2.5" r="2.5" transform="translate(-6702 -5477)" fill="#6a7294"/>
      <circle id="Ellipse_12-29" data-name="Ellipse 12" cx="2.5" cy="2.5" r="2.5" transform="translate(-6777 -5477)" fill="#6a7294"/>
      <circle id="Ellipse_13-29" data-name="Ellipse 13" cx="2.5" cy="2.5" r="2.5" transform="translate(-6852 -5477)" fill="#6a7294"/>
      <circle id="Ellipse_9-30" data-name="Ellipse 9" cx="2.5" cy="2.5" r="2.5" transform="translate(-6552 -5087)" fill="#6a7294"/>
      <circle id="Ellipse_10-30" data-name="Ellipse 10" cx="2.5" cy="2.5" r="2.5" transform="translate(-6627 -5087)" fill="#6a7294"/>
      <circle id="Ellipse_11-30" data-name="Ellipse 11" cx="2.5" cy="2.5" r="2.5" transform="translate(-6702 -5087)" fill="#6a7294"/>
      <circle id="Ellipse_12-30" data-name="Ellipse 12" cx="2.5" cy="2.5" r="2.5" transform="translate(-6777 -5087)" fill="#6a7294"/>
      <circle id="Ellipse_13-30" data-name="Ellipse 13" cx="2.5" cy="2.5" r="2.5" transform="translate(-6852 -5087)" fill="#6a7294"/>
      <circle id="Ellipse_9-31" data-name="Ellipse 9" cx="2.5" cy="2.5" r="2.5" transform="translate(-6552 -4697)" fill="#6a7294"/>
      <circle id="Ellipse_10-31" data-name="Ellipse 10" cx="2.5" cy="2.5" r="2.5" transform="translate(-6627 -4697)" fill="#6a7294"/>
      <circle id="Ellipse_11-31" data-name="Ellipse 11" cx="2.5" cy="2.5" r="2.5" transform="translate(-6702 -4697)" fill="#6a7294"/>
      <circle id="Ellipse_12-31" data-name="Ellipse 12" cx="2.5" cy="2.5" r="2.5" transform="translate(-6777 -4697)" fill="#6a7294"/>
      <circle id="Ellipse_13-31" data-name="Ellipse 13" cx="2.5" cy="2.5" r="2.5" transform="translate(-6852 -4697)" fill="#6a7294"/>
      <circle id="Ellipse_9-32" data-name="Ellipse 9" cx="2.5" cy="2.5" r="2.5" transform="translate(-6552 -5347)" fill="#6a7294"/>
      <circle id="Ellipse_10-32" data-name="Ellipse 10" cx="2.5" cy="2.5" r="2.5" transform="translate(-6627 -5347)" fill="#6a7294"/>
      <circle id="Ellipse_11-32" data-name="Ellipse 11" cx="2.5" cy="2.5" r="2.5" transform="translate(-6702 -5347)" fill="#6a7294"/>
      <circle id="Ellipse_12-32" data-name="Ellipse 12" cx="2.5" cy="2.5" r="2.5" transform="translate(-6777 -5347)" fill="#6a7294"/>
      <circle id="Ellipse_13-32" data-name="Ellipse 13" cx="2.5" cy="2.5" r="2.5" transform="translate(-6852 -5347)" fill="#6a7294"/>
      <circle id="Ellipse_9-33" data-name="Ellipse 9" cx="2.5" cy="2.5" r="2.5" transform="translate(-6552 -4957)" fill="#6a7294"/>
      <circle id="Ellipse_10-33" data-name="Ellipse 10" cx="2.5" cy="2.5" r="2.5" transform="translate(-6627 -4957)" fill="#6a7294"/>
      <circle id="Ellipse_11-33" data-name="Ellipse 11" cx="2.5" cy="2.5" r="2.5" transform="translate(-6702 -4957)" fill="#6a7294"/>
      <circle id="Ellipse_12-33" data-name="Ellipse 12" cx="2.5" cy="2.5" r="2.5" transform="translate(-6777 -4957)" fill="#6a7294"/>
      <circle id="Ellipse_13-33" data-name="Ellipse 13" cx="2.5" cy="2.5" r="2.5" transform="translate(-6852 -4957)" fill="#6a7294"/>
      <circle id="Ellipse_9-34" data-name="Ellipse 9" cx="2.5" cy="2.5" r="2.5" transform="translate(-6552 -4567)" fill="#6a7294"/>
      <circle id="Ellipse_10-34" data-name="Ellipse 10" cx="2.5" cy="2.5" r="2.5" transform="translate(-6627 -4567)" fill="#6a7294"/>
      <circle id="Ellipse_11-34" data-name="Ellipse 11" cx="2.5" cy="2.5" r="2.5" transform="translate(-6702 -4567)" fill="#6a7294"/>
      <circle id="Ellipse_12-34" data-name="Ellipse 12" cx="2.5" cy="2.5" r="2.5" transform="translate(-6777 -4567)" fill="#6a7294"/>
      <circle id="Ellipse_13-34" data-name="Ellipse 13" cx="2.5" cy="2.5" r="2.5" transform="translate(-6852 -4567)" fill="#6a7294"/>
    </g>
    <g id="Group_1319" data-name="Group 1319" transform="translate(-2047 -7)">
      <circle id="Ellipse_9-35" data-name="Ellipse 9" cx="2.5" cy="2.5" r="2.5" transform="translate(-6552 -5542)" fill="#6a7294"/>
      <circle id="Ellipse_10-35" data-name="Ellipse 10" cx="2.5" cy="2.5" r="2.5" transform="translate(-6627 -5542)" fill="#6a7294"/>
      <circle id="Ellipse_11-35" data-name="Ellipse 11" cx="2.5" cy="2.5" r="2.5" transform="translate(-6702 -5542)" fill="#6a7294"/>
      <circle id="Ellipse_12-35" data-name="Ellipse 12" cx="2.5" cy="2.5" r="2.5" transform="translate(-6777 -5542)" fill="#6a7294"/>
      <circle id="Ellipse_13-35" data-name="Ellipse 13" cx="2.5" cy="2.5" r="2.5" transform="translate(-6852 -5542)" fill="#6a7294"/>
      <circle id="Ellipse_9-36" data-name="Ellipse 9" cx="2.5" cy="2.5" r="2.5" transform="translate(-6552 -5152)" fill="#6a7294"/>
      <circle id="Ellipse_10-36" data-name="Ellipse 10" cx="2.5" cy="2.5" r="2.5" transform="translate(-6627 -5152)" fill="#6a7294"/>
      <circle id="Ellipse_11-36" data-name="Ellipse 11" cx="2.5" cy="2.5" r="2.5" transform="translate(-6702 -5152)" fill="#6a7294"/>
      <circle id="Ellipse_12-36" data-name="Ellipse 12" cx="2.5" cy="2.5" r="2.5" transform="translate(-6777 -5152)" fill="#6a7294"/>
      <circle id="Ellipse_13-36" data-name="Ellipse 13" cx="2.5" cy="2.5" r="2.5" transform="translate(-6852 -5152)" fill="#6a7294"/>
      <circle id="Ellipse_9-37" data-name="Ellipse 9" cx="2.5" cy="2.5" r="2.5" transform="translate(-6552 -4762)" fill="#6a7294"/>
      <circle id="Ellipse_10-37" data-name="Ellipse 10" cx="2.5" cy="2.5" r="2.5" transform="translate(-6627 -4762)" fill="#6a7294"/>
      <circle id="Ellipse_11-37" data-name="Ellipse 11" cx="2.5" cy="2.5" r="2.5" transform="translate(-6702 -4762)" fill="#6a7294"/>
      <circle id="Ellipse_12-37" data-name="Ellipse 12" cx="2.5" cy="2.5" r="2.5" transform="translate(-6777 -4762)" fill="#6a7294"/>
      <circle id="Ellipse_13-37" data-name="Ellipse 13" cx="2.5" cy="2.5" r="2.5" transform="translate(-6852 -4762)" fill="#6a7294"/>
      <circle id="Ellipse_9-38" data-name="Ellipse 9" cx="2.5" cy="2.5" r="2.5" transform="translate(-6552 -5412)" fill="#6a7294"/>
      <circle id="Ellipse_10-38" data-name="Ellipse 10" cx="2.5" cy="2.5" r="2.5" transform="translate(-6627 -5412)" fill="#6a7294"/>
      <circle id="Ellipse_11-38" data-name="Ellipse 11" cx="2.5" cy="2.5" r="2.5" transform="translate(-6702 -5412)" fill="#6a7294"/>
      <circle id="Ellipse_12-38" data-name="Ellipse 12" cx="2.5" cy="2.5" r="2.5" transform="translate(-6777 -5412)" fill="#6a7294"/>
      <circle id="Ellipse_13-38" data-name="Ellipse 13" cx="2.5" cy="2.5" r="2.5" transform="translate(-6852 -5412)" fill="#6a7294"/>
      <circle id="Ellipse_9-39" data-name="Ellipse 9" cx="2.5" cy="2.5" r="2.5" transform="translate(-6552 -5022)" fill="#6a7294"/>
      <circle id="Ellipse_10-39" data-name="Ellipse 10" cx="2.5" cy="2.5" r="2.5" transform="translate(-6627 -5022)" fill="#6a7294"/>
      <circle id="Ellipse_11-39" data-name="Ellipse 11" cx="2.5" cy="2.5" r="2.5" transform="translate(-6702 -5022)" fill="#6a7294"/>
      <circle id="Ellipse_12-39" data-name="Ellipse 12" cx="2.5" cy="2.5" r="2.5" transform="translate(-6777 -5022)" fill="#6a7294"/>
      <circle id="Ellipse_13-39" data-name="Ellipse 13" cx="2.5" cy="2.5" r="2.5" transform="translate(-6852 -5022)" fill="#6a7294"/>
      <circle id="Ellipse_9-40" data-name="Ellipse 9" cx="2.5" cy="2.5" r="2.5" transform="translate(-6552 -4632)" fill="#6a7294"/>
      <circle id="Ellipse_10-40" data-name="Ellipse 10" cx="2.5" cy="2.5" r="2.5" transform="translate(-6627 -4632)" fill="#6a7294"/>
      <circle id="Ellipse_11-40" data-name="Ellipse 11" cx="2.5" cy="2.5" r="2.5" transform="translate(-6702 -4632)" fill="#6a7294"/>
      <circle id="Ellipse_12-40" data-name="Ellipse 12" cx="2.5" cy="2.5" r="2.5" transform="translate(-6777 -4632)" fill="#6a7294"/>
      <circle id="Ellipse_13-40" data-name="Ellipse 13" cx="2.5" cy="2.5" r="2.5" transform="translate(-6852 -4632)" fill="#6a7294"/>
      <circle id="Ellipse_9-41" data-name="Ellipse 9" cx="2.5" cy="2.5" r="2.5" transform="translate(-6552 -5282)" fill="#6a7294"/>
      <circle id="Ellipse_10-41" data-name="Ellipse 10" cx="2.5" cy="2.5" r="2.5" transform="translate(-6627 -5282)" fill="#6a7294"/>
      <circle id="Ellipse_11-41" data-name="Ellipse 11" cx="2.5" cy="2.5" r="2.5" transform="translate(-6702 -5282)" fill="#6a7294"/>
      <circle id="Ellipse_12-41" data-name="Ellipse 12" cx="2.5" cy="2.5" r="2.5" transform="translate(-6777 -5282)" fill="#6a7294"/>
      <circle id="Ellipse_13-41" data-name="Ellipse 13" cx="2.5" cy="2.5" r="2.5" transform="translate(-6852 -5282)" fill="#6a7294"/>
      <circle id="Ellipse_9-42" data-name="Ellipse 9" cx="2.5" cy="2.5" r="2.5" transform="translate(-6552 -4892)" fill="#6a7294"/>
      <circle id="Ellipse_10-42" data-name="Ellipse 10" cx="2.5" cy="2.5" r="2.5" transform="translate(-6627 -4892)" fill="#6a7294"/>
      <circle id="Ellipse_11-42" data-name="Ellipse 11" cx="2.5" cy="2.5" r="2.5" transform="translate(-6702 -4892)" fill="#6a7294"/>
      <circle id="Ellipse_12-42" data-name="Ellipse 12" cx="2.5" cy="2.5" r="2.5" transform="translate(-6777 -4892)" fill="#6a7294"/>
      <circle id="Ellipse_13-42" data-name="Ellipse 13" cx="2.5" cy="2.5" r="2.5" transform="translate(-6852 -4892)" fill="#6a7294"/>
      <circle id="Ellipse_9-43" data-name="Ellipse 9" cx="2.5" cy="2.5" r="2.5" transform="translate(-6552 -5607)" fill="#6a7294"/>
      <circle id="Ellipse_10-43" data-name="Ellipse 10" cx="2.5" cy="2.5" r="2.5" transform="translate(-6627 -5607)" fill="#6a7294"/>
      <circle id="Ellipse_11-43" data-name="Ellipse 11" cx="2.5" cy="2.5" r="2.5" transform="translate(-6702 -5607)" fill="#6a7294"/>
      <circle id="Ellipse_12-43" data-name="Ellipse 12" cx="2.5" cy="2.5" r="2.5" transform="translate(-6777 -5607)" fill="#6a7294"/>
      <circle id="Ellipse_13-43" data-name="Ellipse 13" cx="2.5" cy="2.5" r="2.5" transform="translate(-6852 -5607)" fill="#6a7294"/>
      <circle id="Ellipse_9-44" data-name="Ellipse 9" cx="2.5" cy="2.5" r="2.5" transform="translate(-6552 -5217)" fill="#6a7294"/>
      <circle id="Ellipse_10-44" data-name="Ellipse 10" cx="2.5" cy="2.5" r="2.5" transform="translate(-6627 -5217)" fill="#6a7294"/>
      <circle id="Ellipse_11-44" data-name="Ellipse 11" cx="2.5" cy="2.5" r="2.5" transform="translate(-6702 -5217)" fill="#6a7294"/>
      <circle id="Ellipse_12-44" data-name="Ellipse 12" cx="2.5" cy="2.5" r="2.5" transform="translate(-6777 -5217)" fill="#6a7294"/>
      <circle id="Ellipse_13-44" data-name="Ellipse 13" cx="2.5" cy="2.5" r="2.5" transform="translate(-6852 -5217)" fill="#6a7294"/>
      <circle id="Ellipse_9-45" data-name="Ellipse 9" cx="2.5" cy="2.5" r="2.5" transform="translate(-6552 -4827)" fill="#6a7294"/>
      <circle id="Ellipse_10-45" data-name="Ellipse 10" cx="2.5" cy="2.5" r="2.5" transform="translate(-6627 -4827)" fill="#6a7294"/>
      <circle id="Ellipse_11-45" data-name="Ellipse 11" cx="2.5" cy="2.5" r="2.5" transform="translate(-6702 -4827)" fill="#6a7294"/>
      <circle id="Ellipse_12-45" data-name="Ellipse 12" cx="2.5" cy="2.5" r="2.5" transform="translate(-6777 -4827)" fill="#6a7294"/>
      <circle id="Ellipse_13-45" data-name="Ellipse 13" cx="2.5" cy="2.5" r="2.5" transform="translate(-6852 -4827)" fill="#6a7294"/>
      <circle id="Ellipse_9-46" data-name="Ellipse 9" cx="2.5" cy="2.5" r="2.5" transform="translate(-6552 -5477)" fill="#6a7294"/>
      <circle id="Ellipse_10-46" data-name="Ellipse 10" cx="2.5" cy="2.5" r="2.5" transform="translate(-6627 -5477)" fill="#6a7294"/>
      <circle id="Ellipse_11-46" data-name="Ellipse 11" cx="2.5" cy="2.5" r="2.5" transform="translate(-6702 -5477)" fill="#6a7294"/>
      <circle id="Ellipse_12-46" data-name="Ellipse 12" cx="2.5" cy="2.5" r="2.5" transform="translate(-6777 -5477)" fill="#6a7294"/>
      <circle id="Ellipse_13-46" data-name="Ellipse 13" cx="2.5" cy="2.5" r="2.5" transform="translate(-6852 -5477)" fill="#6a7294"/>
      <circle id="Ellipse_9-47" data-name="Ellipse 9" cx="2.5" cy="2.5" r="2.5" transform="translate(-6552 -5087)" fill="#6a7294"/>
      <circle id="Ellipse_10-47" data-name="Ellipse 10" cx="2.5" cy="2.5" r="2.5" transform="translate(-6627 -5087)" fill="#6a7294"/>
      <circle id="Ellipse_11-47" data-name="Ellipse 11" cx="2.5" cy="2.5" r="2.5" transform="translate(-6702 -5087)" fill="#6a7294"/>
      <circle id="Ellipse_12-47" data-name="Ellipse 12" cx="2.5" cy="2.5" r="2.5" transform="translate(-6777 -5087)" fill="#6a7294"/>
      <circle id="Ellipse_13-47" data-name="Ellipse 13" cx="2.5" cy="2.5" r="2.5" transform="translate(-6852 -5087)" fill="#6a7294"/>
      <circle id="Ellipse_9-48" data-name="Ellipse 9" cx="2.5" cy="2.5" r="2.5" transform="translate(-6552 -4697)" fill="#6a7294"/>
      <circle id="Ellipse_10-48" data-name="Ellipse 10" cx="2.5" cy="2.5" r="2.5" transform="translate(-6627 -4697)" fill="#6a7294"/>
      <circle id="Ellipse_11-48" data-name="Ellipse 11" cx="2.5" cy="2.5" r="2.5" transform="translate(-6702 -4697)" fill="#6a7294"/>
      <circle id="Ellipse_12-48" data-name="Ellipse 12" cx="2.5" cy="2.5" r="2.5" transform="translate(-6777 -4697)" fill="#6a7294"/>
      <circle id="Ellipse_13-48" data-name="Ellipse 13" cx="2.5" cy="2.5" r="2.5" transform="translate(-6852 -4697)" fill="#6a7294"/>
      <circle id="Ellipse_9-49" data-name="Ellipse 9" cx="2.5" cy="2.5" r="2.5" transform="translate(-6552 -5347)" fill="#6a7294"/>
      <circle id="Ellipse_10-49" data-name="Ellipse 10" cx="2.5" cy="2.5" r="2.5" transform="translate(-6627 -5347)" fill="#6a7294"/>
      <circle id="Ellipse_11-49" data-name="Ellipse 11" cx="2.5" cy="2.5" r="2.5" transform="translate(-6702 -5347)" fill="#6a7294"/>
      <circle id="Ellipse_12-49" data-name="Ellipse 12" cx="2.5" cy="2.5" r="2.5" transform="translate(-6777 -5347)" fill="#6a7294"/>
      <circle id="Ellipse_13-49" data-name="Ellipse 13" cx="2.5" cy="2.5" r="2.5" transform="translate(-6852 -5347)" fill="#6a7294"/>
      <circle id="Ellipse_9-50" data-name="Ellipse 9" cx="2.5" cy="2.5" r="2.5" transform="translate(-6552 -4957)" fill="#6a7294"/>
      <circle id="Ellipse_10-50" data-name="Ellipse 10" cx="2.5" cy="2.5" r="2.5" transform="translate(-6627 -4957)" fill="#6a7294"/>
      <circle id="Ellipse_11-50" data-name="Ellipse 11" cx="2.5" cy="2.5" r="2.5" transform="translate(-6702 -4957)" fill="#6a7294"/>
      <circle id="Ellipse_12-50" data-name="Ellipse 12" cx="2.5" cy="2.5" r="2.5" transform="translate(-6777 -4957)" fill="#6a7294"/>
      <circle id="Ellipse_13-50" data-name="Ellipse 13" cx="2.5" cy="2.5" r="2.5" transform="translate(-6852 -4957)" fill="#6a7294"/>
      <circle id="Ellipse_9-51" data-name="Ellipse 9" cx="2.5" cy="2.5" r="2.5" transform="translate(-6552 -4567)" fill="#6a7294"/>
      <circle id="Ellipse_10-51" data-name="Ellipse 10" cx="2.5" cy="2.5" r="2.5" transform="translate(-6627 -4567)" fill="#6a7294"/>
      <circle id="Ellipse_11-51" data-name="Ellipse 11" cx="2.5" cy="2.5" r="2.5" transform="translate(-6702 -4567)" fill="#6a7294"/>
      <circle id="Ellipse_12-51" data-name="Ellipse 12" cx="2.5" cy="2.5" r="2.5" transform="translate(-6777 -4567)" fill="#6a7294"/>
      <circle id="Ellipse_13-51" data-name="Ellipse 13" cx="2.5" cy="2.5" r="2.5" transform="translate(-6852 -4567)" fill="#6a7294"/>
    </g>
    <g id="Group_1320" data-name="Group 1320" transform="translate(-1297 -7)">
      <circle id="Ellipse_9-52" data-name="Ellipse 9" cx="2.5" cy="2.5" r="2.5" transform="translate(-6552 -5542)" fill="#6a7294"/>
      <circle id="Ellipse_10-52" data-name="Ellipse 10" cx="2.5" cy="2.5" r="2.5" transform="translate(-6627 -5542)" fill="#6a7294"/>
      <circle id="Ellipse_11-52" data-name="Ellipse 11" cx="2.5" cy="2.5" r="2.5" transform="translate(-6702 -5542)" fill="#6a7294"/>
      <circle id="Ellipse_12-52" data-name="Ellipse 12" cx="2.5" cy="2.5" r="2.5" transform="translate(-6777 -5542)" fill="#6a7294"/>
      <circle id="Ellipse_13-52" data-name="Ellipse 13" cx="2.5" cy="2.5" r="2.5" transform="translate(-6852 -5542)" fill="#6a7294"/>
      <circle id="Ellipse_9-53" data-name="Ellipse 9" cx="2.5" cy="2.5" r="2.5" transform="translate(-6552 -5152)" fill="#6a7294"/>
      <circle id="Ellipse_10-53" data-name="Ellipse 10" cx="2.5" cy="2.5" r="2.5" transform="translate(-6627 -5152)" fill="#6a7294"/>
      <circle id="Ellipse_11-53" data-name="Ellipse 11" cx="2.5" cy="2.5" r="2.5" transform="translate(-6702 -5152)" fill="#6a7294"/>
      <circle id="Ellipse_12-53" data-name="Ellipse 12" cx="2.5" cy="2.5" r="2.5" transform="translate(-6777 -5152)" fill="#6a7294"/>
      <circle id="Ellipse_13-53" data-name="Ellipse 13" cx="2.5" cy="2.5" r="2.5" transform="translate(-6852 -5152)" fill="#6a7294"/>
      <circle id="Ellipse_9-54" data-name="Ellipse 9" cx="2.5" cy="2.5" r="2.5" transform="translate(-6552 -4762)" fill="#6a7294"/>
      <circle id="Ellipse_10-54" data-name="Ellipse 10" cx="2.5" cy="2.5" r="2.5" transform="translate(-6627 -4762)" fill="#6a7294"/>
      <circle id="Ellipse_11-54" data-name="Ellipse 11" cx="2.5" cy="2.5" r="2.5" transform="translate(-6702 -4762)" fill="#6a7294"/>
      <circle id="Ellipse_12-54" data-name="Ellipse 12" cx="2.5" cy="2.5" r="2.5" transform="translate(-6777 -4762)" fill="#6a7294"/>
      <circle id="Ellipse_13-54" data-name="Ellipse 13" cx="2.5" cy="2.5" r="2.5" transform="translate(-6852 -4762)" fill="#6a7294"/>
      <circle id="Ellipse_9-55" data-name="Ellipse 9" cx="2.5" cy="2.5" r="2.5" transform="translate(-6552 -5412)" fill="#6a7294"/>
      <circle id="Ellipse_10-55" data-name="Ellipse 10" cx="2.5" cy="2.5" r="2.5" transform="translate(-6627 -5412)" fill="#6a7294"/>
      <circle id="Ellipse_11-55" data-name="Ellipse 11" cx="2.5" cy="2.5" r="2.5" transform="translate(-6702 -5412)" fill="#6a7294"/>
      <circle id="Ellipse_12-55" data-name="Ellipse 12" cx="2.5" cy="2.5" r="2.5" transform="translate(-6777 -5412)" fill="#6a7294"/>
      <circle id="Ellipse_13-55" data-name="Ellipse 13" cx="2.5" cy="2.5" r="2.5" transform="translate(-6852 -5412)" fill="#6a7294"/>
      <circle id="Ellipse_9-56" data-name="Ellipse 9" cx="2.5" cy="2.5" r="2.5" transform="translate(-6552 -5022)" fill="#6a7294"/>
      <circle id="Ellipse_10-56" data-name="Ellipse 10" cx="2.5" cy="2.5" r="2.5" transform="translate(-6627 -5022)" fill="#6a7294"/>
      <circle id="Ellipse_11-56" data-name="Ellipse 11" cx="2.5" cy="2.5" r="2.5" transform="translate(-6702 -5022)" fill="#6a7294"/>
      <circle id="Ellipse_12-56" data-name="Ellipse 12" cx="2.5" cy="2.5" r="2.5" transform="translate(-6777 -5022)" fill="#6a7294"/>
      <circle id="Ellipse_13-56" data-name="Ellipse 13" cx="2.5" cy="2.5" r="2.5" transform="translate(-6852 -5022)" fill="#6a7294"/>
      <circle id="Ellipse_9-57" data-name="Ellipse 9" cx="2.5" cy="2.5" r="2.5" transform="translate(-6552 -4632)" fill="#6a7294"/>
      <circle id="Ellipse_10-57" data-name="Ellipse 10" cx="2.5" cy="2.5" r="2.5" transform="translate(-6627 -4632)" fill="#6a7294"/>
      <circle id="Ellipse_11-57" data-name="Ellipse 11" cx="2.5" cy="2.5" r="2.5" transform="translate(-6702 -4632)" fill="#6a7294"/>
      <circle id="Ellipse_12-57" data-name="Ellipse 12" cx="2.5" cy="2.5" r="2.5" transform="translate(-6777 -4632)" fill="#6a7294"/>
      <circle id="Ellipse_13-57" data-name="Ellipse 13" cx="2.5" cy="2.5" r="2.5" transform="translate(-6852 -4632)" fill="#6a7294"/>
      <circle id="Ellipse_9-58" data-name="Ellipse 9" cx="2.5" cy="2.5" r="2.5" transform="translate(-6552 -5282)" fill="#6a7294"/>
      <circle id="Ellipse_10-58" data-name="Ellipse 10" cx="2.5" cy="2.5" r="2.5" transform="translate(-6627 -5282)" fill="#6a7294"/>
      <circle id="Ellipse_11-58" data-name="Ellipse 11" cx="2.5" cy="2.5" r="2.5" transform="translate(-6702 -5282)" fill="#6a7294"/>
      <circle id="Ellipse_12-58" data-name="Ellipse 12" cx="2.5" cy="2.5" r="2.5" transform="translate(-6777 -5282)" fill="#6a7294"/>
      <circle id="Ellipse_13-58" data-name="Ellipse 13" cx="2.5" cy="2.5" r="2.5" transform="translate(-6852 -5282)" fill="#6a7294"/>
      <circle id="Ellipse_9-59" data-name="Ellipse 9" cx="2.5" cy="2.5" r="2.5" transform="translate(-6552 -4892)" fill="#6a7294"/>
      <circle id="Ellipse_10-59" data-name="Ellipse 10" cx="2.5" cy="2.5" r="2.5" transform="translate(-6627 -4892)" fill="#6a7294"/>
      <circle id="Ellipse_11-59" data-name="Ellipse 11" cx="2.5" cy="2.5" r="2.5" transform="translate(-6702 -4892)" fill="#6a7294"/>
      <circle id="Ellipse_12-59" data-name="Ellipse 12" cx="2.5" cy="2.5" r="2.5" transform="translate(-6777 -4892)" fill="#6a7294"/>
      <circle id="Ellipse_13-59" data-name="Ellipse 13" cx="2.5" cy="2.5" r="2.5" transform="translate(-6852 -4892)" fill="#6a7294"/>
      <circle id="Ellipse_9-60" data-name="Ellipse 9" cx="2.5" cy="2.5" r="2.5" transform="translate(-6552 -5607)" fill="#6a7294"/>
      <circle id="Ellipse_10-60" data-name="Ellipse 10" cx="2.5" cy="2.5" r="2.5" transform="translate(-6627 -5607)" fill="#6a7294"/>
      <circle id="Ellipse_11-60" data-name="Ellipse 11" cx="2.5" cy="2.5" r="2.5" transform="translate(-6702 -5607)" fill="#6a7294"/>
      <circle id="Ellipse_12-60" data-name="Ellipse 12" cx="2.5" cy="2.5" r="2.5" transform="translate(-6777 -5607)" fill="#6a7294"/>
      <circle id="Ellipse_13-60" data-name="Ellipse 13" cx="2.5" cy="2.5" r="2.5" transform="translate(-6852 -5607)" fill="#6a7294"/>
      <circle id="Ellipse_9-61" data-name="Ellipse 9" cx="2.5" cy="2.5" r="2.5" transform="translate(-6552 -5217)" fill="#6a7294"/>
      <circle id="Ellipse_10-61" data-name="Ellipse 10" cx="2.5" cy="2.5" r="2.5" transform="translate(-6627 -5217)" fill="#6a7294"/>
      <circle id="Ellipse_11-61" data-name="Ellipse 11" cx="2.5" cy="2.5" r="2.5" transform="translate(-6702 -5217)" fill="#6a7294"/>
      <circle id="Ellipse_12-61" data-name="Ellipse 12" cx="2.5" cy="2.5" r="2.5" transform="translate(-6777 -5217)" fill="#6a7294"/>
      <circle id="Ellipse_13-61" data-name="Ellipse 13" cx="2.5" cy="2.5" r="2.5" transform="translate(-6852 -5217)" fill="#6a7294"/>
      <circle id="Ellipse_9-62" data-name="Ellipse 9" cx="2.5" cy="2.5" r="2.5" transform="translate(-6552 -4827)" fill="#6a7294"/>
      <circle id="Ellipse_10-62" data-name="Ellipse 10" cx="2.5" cy="2.5" r="2.5" transform="translate(-6627 -4827)" fill="#6a7294"/>
      <circle id="Ellipse_11-62" data-name="Ellipse 11" cx="2.5" cy="2.5" r="2.5" transform="translate(-6702 -4827)" fill="#6a7294"/>
      <circle id="Ellipse_12-62" data-name="Ellipse 12" cx="2.5" cy="2.5" r="2.5" transform="translate(-6777 -4827)" fill="#6a7294"/>
      <circle id="Ellipse_13-62" data-name="Ellipse 13" cx="2.5" cy="2.5" r="2.5" transform="translate(-6852 -4827)" fill="#6a7294"/>
      <circle id="Ellipse_9-63" data-name="Ellipse 9" cx="2.5" cy="2.5" r="2.5" transform="translate(-6552 -5477)" fill="#6a7294"/>
      <circle id="Ellipse_10-63" data-name="Ellipse 10" cx="2.5" cy="2.5" r="2.5" transform="translate(-6627 -5477)" fill="#6a7294"/>
      <circle id="Ellipse_11-63" data-name="Ellipse 11" cx="2.5" cy="2.5" r="2.5" transform="translate(-6702 -5477)" fill="#6a7294"/>
      <circle id="Ellipse_12-63" data-name="Ellipse 12" cx="2.5" cy="2.5" r="2.5" transform="translate(-6777 -5477)" fill="#6a7294"/>
      <circle id="Ellipse_13-63" data-name="Ellipse 13" cx="2.5" cy="2.5" r="2.5" transform="translate(-6852 -5477)" fill="#6a7294"/>
      <circle id="Ellipse_9-64" data-name="Ellipse 9" cx="2.5" cy="2.5" r="2.5" transform="translate(-6552 -5087)" fill="#6a7294"/>
      <circle id="Ellipse_10-64" data-name="Ellipse 10" cx="2.5" cy="2.5" r="2.5" transform="translate(-6627 -5087)" fill="#6a7294"/>
      <circle id="Ellipse_11-64" data-name="Ellipse 11" cx="2.5" cy="2.5" r="2.5" transform="translate(-6702 -5087)" fill="#6a7294"/>
      <circle id="Ellipse_12-64" data-name="Ellipse 12" cx="2.5" cy="2.5" r="2.5" transform="translate(-6777 -5087)" fill="#6a7294"/>
      <circle id="Ellipse_13-64" data-name="Ellipse 13" cx="2.5" cy="2.5" r="2.5" transform="translate(-6852 -5087)" fill="#6a7294"/>
      <circle id="Ellipse_9-65" data-name="Ellipse 9" cx="2.5" cy="2.5" r="2.5" transform="translate(-6552 -4697)" fill="#6a7294"/>
      <circle id="Ellipse_10-65" data-name="Ellipse 10" cx="2.5" cy="2.5" r="2.5" transform="translate(-6627 -4697)" fill="#6a7294"/>
      <circle id="Ellipse_11-65" data-name="Ellipse 11" cx="2.5" cy="2.5" r="2.5" transform="translate(-6702 -4697)" fill="#6a7294"/>
      <circle id="Ellipse_12-65" data-name="Ellipse 12" cx="2.5" cy="2.5" r="2.5" transform="translate(-6777 -4697)" fill="#6a7294"/>
      <circle id="Ellipse_13-65" data-name="Ellipse 13" cx="2.5" cy="2.5" r="2.5" transform="translate(-6852 -4697)" fill="#6a7294"/>
      <circle id="Ellipse_9-66" data-name="Ellipse 9" cx="2.5" cy="2.5" r="2.5" transform="translate(-6552 -5347)" fill="#6a7294"/>
      <circle id="Ellipse_10-66" data-name="Ellipse 10" cx="2.5" cy="2.5" r="2.5" transform="translate(-6627 -5347)" fill="#6a7294"/>
      <circle id="Ellipse_11-66" data-name="Ellipse 11" cx="2.5" cy="2.5" r="2.5" transform="translate(-6702 -5347)" fill="#6a7294"/>
      <circle id="Ellipse_12-66" data-name="Ellipse 12" cx="2.5" cy="2.5" r="2.5" transform="translate(-6777 -5347)" fill="#6a7294"/>
      <circle id="Ellipse_13-66" data-name="Ellipse 13" cx="2.5" cy="2.5" r="2.5" transform="translate(-6852 -5347)" fill="#6a7294"/>
      <circle id="Ellipse_9-67" data-name="Ellipse 9" cx="2.5" cy="2.5" r="2.5" transform="translate(-6552 -4957)" fill="#6a7294"/>
      <circle id="Ellipse_10-67" data-name="Ellipse 10" cx="2.5" cy="2.5" r="2.5" transform="translate(-6627 -4957)" fill="#6a7294"/>
      <circle id="Ellipse_11-67" data-name="Ellipse 11" cx="2.5" cy="2.5" r="2.5" transform="translate(-6702 -4957)" fill="#6a7294"/>
      <circle id="Ellipse_12-67" data-name="Ellipse 12" cx="2.5" cy="2.5" r="2.5" transform="translate(-6777 -4957)" fill="#6a7294"/>
      <circle id="Ellipse_13-67" data-name="Ellipse 13" cx="2.5" cy="2.5" r="2.5" transform="translate(-6852 -4957)" fill="#6a7294"/>
      <circle id="Ellipse_9-68" data-name="Ellipse 9" cx="2.5" cy="2.5" r="2.5" transform="translate(-6552 -4567)" fill="#6a7294"/>
      <circle id="Ellipse_10-68" data-name="Ellipse 10" cx="2.5" cy="2.5" r="2.5" transform="translate(-6627 -4567)" fill="#6a7294"/>
      <circle id="Ellipse_11-68" data-name="Ellipse 11" cx="2.5" cy="2.5" r="2.5" transform="translate(-6702 -4567)" fill="#6a7294"/>
      <circle id="Ellipse_12-68" data-name="Ellipse 12" cx="2.5" cy="2.5" r="2.5" transform="translate(-6777 -4567)" fill="#6a7294"/>
      <circle id="Ellipse_13-68" data-name="Ellipse 13" cx="2.5" cy="2.5" r="2.5" transform="translate(-6852 -4567)" fill="#6a7294"/>
    </g>
  </g>
</svg>
